# xmcd
#
# Track frame offsets: 
#        150
#        34713
#        62363
#        95138
#        118848
#        170907
#        196024
#        218831
#        249540
#        281895
#        301491
#        310959
#
# Disc length: 4396 seconds
#
# Revision: 1
# Processed by: cddbd v1.5.2PL0 Copyright (c) Steve Scherf et al.
# Submitted via: ExactAudioCopy v0.99pb5
#
DISCID=b2112a0c
DTITLE=Loreena McKennitt - In-Store Sampler
DYEAR=2004
DGENRE=Celtic
TTITLE0=The Mystic's Dream
TTITLE1=The Mummers' Dance
TTITLE2=The Bonny Swans
TTITLE3=Marco Polo
TTITLE4=The Lady Of Shalott
TTITLE5=Santiago
TTITLE6=Stolen Child
TTITLE7=God Rest Ye Merry, Gentlemen
TTITLE8=Dante's Prayer
TTITLE9=Huron 'Beltane' Fire Dance
TTITLE10=The King
TTITLE11=Tango to Evora
EXTD=Year:1985-1998
EXTT0=THE MASK AND MIRROR
EXTT1=THE BOOK OF SECRETS
EXTT2=THE MASK AND MIRROR
EXTT3=THE BOOK OF SECRETS
EXTT4=THE VISIT
EXTT5=LIVE IN PARIS AND TORONTO
EXTT6=ELEMENTAL
EXTT7=A WINTER GARDEN
EXTT8=THE BOOK OF SECRETS
EXTT9=PARALLEL DREAMS
EXTT10=TO DRIVE THE COLD WINTER AWAY
EXTT11=THE VISIT
PLAYORDER=
